<svg width="219" height="60" viewBox="0 0 219 60" fill="none" xmlns="http://www.w3.org/2000/svg">
<path d="M30 60C46.6251 60 60 46.6251 60 30C60 13.3749 46.6251 0 30 0C13.3749 0 0 13.3749 0 30C0 46.6251 13.3749 60 30 60Z" fill="#42A8FF"/>
<path d="M29.916 0L29.5134 1.36733V41.0406L29.916 41.4422L48.3315 30.5566L29.916 0Z" fill="white" fill-opacity="0.87"/>
<path d="M29.916 0L11.5 30.5566L29.916 41.4422V22.1859V0Z" fill="white" fill-opacity="0.69"/>
<path d="M29.916 44.9288L29.6891 45.2055V59.3377L29.916 60L48.3427 34.0489L29.916 44.9288Z" fill="white"/>
<path d="M29.916 60V44.9288L11.5 34.0489L29.916 60Z" fill="white" fill-opacity="0.69"/>
<path d="M29.916 41.4422L48.3315 30.5566L29.916 22.1859V41.4422Z" fill="white"/>
<path d="M11.5 30.5566L29.916 41.4422V22.1859L11.5 30.5566Z" fill="white" fill-opacity="0.63"/>
<path d="M100 60C116.625 60 130 46.6251 130 30C130 13.3749 116.625 0 100 0C83.3749 0 70 13.3749 70 30C70 46.6251 83.3749 60 100 60Z" fill="#50AF95"/>
<path fill-rule="evenodd" clip-rule="evenodd" d="M103.823 33.249C103.579 33.2673 102.319 33.3425 99.5091 33.3425C97.2739 33.3425 95.6869 33.2754 95.1301 33.249C86.4919 32.869 80.0442 31.3653 80.0442 29.5649C80.0442 27.7646 86.4919 26.2629 95.1301 25.8768V31.7514C95.695 31.7921 97.3125 31.8876 99.5477 31.8876C102.23 31.8876 103.573 31.7758 103.815 31.7534V25.8809C112.435 26.2649 118.868 27.7686 118.868 29.5649C118.868 31.3613 112.437 32.865 103.815 33.247L103.823 33.249ZM103.823 25.2733V20.0164H115.853V12H83.1004V20.0164H95.1281V25.2712C85.3519 25.7203 78 27.6569 78 29.9774C78 32.298 85.3519 34.2325 95.1281 34.6836V51.5292H103.821V34.6776C113.575 34.2285 120.915 32.294 120.915 29.9754C120.915 27.6569 113.581 25.7224 103.821 25.2712L103.823 25.2733Z" fill="white"/>
<path d="M170 60C186.625 60 200 46.6251 200 30C200 13.3749 186.625 0 170 0C153.375 0 140 13.3749 140 30C140 46.6251 153.375 60 170 60Z" fill="#2775CA"/>
<path d="M178.25 34.7499C178.25 30.375 175.625 28.875 170.375 28.2501C166.625 27.75 165.875 26.7501 165.875 24.9999C165.875 23.2497 167.125 22.125 169.625 22.125C171.875 22.125 173.125 22.875 173.75 24.75C173.875 25.125 174.25 25.3749 174.625 25.3749H176.625C177.125 25.3749 177.5 24.9999 177.5 24.5001V24.375C177 21.6249 174.75 19.5 171.875 19.2501V16.2501C171.875 15.75 171.5 15.375 170.875 15.2499H169C168.5 15.2499 168.125 15.6249 168 16.2501V19.125C164.25 19.6251 161.875 22.125 161.875 25.2501C161.875 29.3751 164.375 30.9999 169.625 31.6251C173.125 32.25 174.25 33 174.25 35.0001C174.25 37.0002 172.5 38.3751 170.125 38.3751C166.875 38.3751 165.75 36.9999 165.375 35.1249C165.25 34.6251 164.875 34.3749 164.5 34.3749H162.375C161.875 34.3749 161.5 34.7499 161.5 35.25V35.3751C162 38.4999 164 40.7499 168.125 41.3751V44.3751C168.125 44.8749 168.5 45.2499 169.125 45.375H171C171.5 45.375 171.875 45 172 44.3751V41.3751C175.75 40.7499 178.25 38.1249 178.25 34.7499Z" fill="white"/>
<path d="M163.625 47.8749C153.875 44.3751 148.875 33.5001 152.5 23.8749C154.375 18.6249 158.5 14.625 163.625 12.75C164.125 12.5001 164.375 12.1251 164.375 11.4999V9.75002C164.375 9.24992 164.125 8.87492 163.625 8.75012C163.5 8.75012 163.25 8.75012 163.125 8.87492C151.25 12.6249 144.75 25.2501 148.5 37.125C150.75 44.1249 156.125 49.5 163.125 51.75C163.625 51.9999 164.125 51.75 164.25 51.2499C164.375 51.1251 164.375 51 164.375 50.7501V48.9999C164.375 48.6249 164 48.1251 163.625 47.8749ZM176.875 8.87492C176.375 8.62502 175.875 8.87492 175.75 9.37502C175.625 9.50012 175.625 9.62492 175.625 9.87512V11.625C175.625 12.1251 176 12.6249 176.375 12.8751C186.125 16.3749 191.125 27.2499 187.5 36.8751C185.625 42.1251 181.5 46.125 176.375 48C175.875 48.2499 175.625 48.6249 175.625 49.2501V51C175.625 51.5001 175.875 51.8751 176.375 51.9999C176.5 51.9999 176.75 51.9999 176.875 51.8751C188.75 48.1251 195.25 35.4999 191.5 23.625C189.25 16.5 183.75 11.1249 176.875 8.87492Z" fill="white"/>
</svg>
