<svg width="160" height="128" viewBox="0 0 160 128" fill="none" xmlns="http://www.w3.org/2000/svg">
<g clip-path="url(#clip0_111_2)">
<path d="M103.135 42.0904C89.3528 42.8075 77.3736 46.9872 67.6414 56.4257C57.8068 65.9599 53.3198 77.6453 54.5491 92.1309C49.1605 91.4616 44.2569 90.7308 39.3259 90.3142C37.6185 90.1708 35.5969 90.3757 34.1559 91.1884C29.3683 93.8929 24.772 96.9458 19.3288 100.347C20.3259 95.8257 20.9747 91.8714 22.1221 88.0673C22.9622 85.2672 22.5729 83.7168 19.9981 81.8933C3.45681 70.2147 -3.51622 52.7377 1.7016 34.7417C6.5233 18.098 18.3795 7.99699 34.4905 2.73819C56.4819 -4.44656 81.1914 2.88161 94.5638 20.3381C99.3855 26.6418 102.35 33.7241 103.135 42.0904ZM39.7084 36.4833C39.8381 33.1914 36.9833 30.2274 33.5959 30.1249C30.1264 30.0225 27.2785 32.6724 27.176 36.094C27.0736 39.5566 29.7235 42.3362 33.2134 42.425C36.676 42.5138 39.5786 39.8571 39.7084 36.4833ZM72.7978 30.1249C69.3967 30.1864 66.5282 33.0821 66.5829 36.3877C66.6443 39.8093 69.465 42.4933 72.9617 42.4524C76.4653 42.4114 79.1289 39.7 79.0947 36.2033C79.0674 32.7748 76.2604 30.0634 72.7978 30.1249Z" fill="#2DC100"/>
<path d="M134.094 128C129.729 126.06 125.727 123.144 121.466 122.7C117.218 122.256 112.758 124.708 108.319 125.159C94.7892 126.545 82.6666 122.775 72.6749 113.528C53.6681 95.9487 56.3863 68.9922 78.3708 54.5817C97.9171 41.7762 126.581 46.0447 140.356 63.8154C152.383 79.3186 150.97 99.8962 136.286 112.92C132.038 116.69 130.508 119.791 133.233 124.763C133.745 125.685 133.8 126.846 134.094 128ZM84.4218 79.9127C87.2015 79.9127 89.4894 77.7409 89.5918 74.9954C89.7011 72.0928 87.3654 69.6547 84.456 69.641C81.5739 69.6273 79.163 72.0997 79.2655 74.9613C79.3611 77.6999 81.6626 79.9059 84.4218 79.9127ZM116.439 69.6547C113.741 69.6342 111.453 71.8401 111.344 74.5652C111.228 77.4746 113.489 79.8718 116.371 79.8786C119.157 79.8854 121.363 77.7819 121.459 75.0091C121.575 72.086 119.307 69.6752 116.439 69.6547Z" fill="#2DC100"/>
</g>
<defs>
<clipPath id="clip0_111_2">
<rect width="160" height="128" fill="white"/>
</clipPath>
</defs>
</svg>
